<svg xmlns="http://www.w3.org/2000/svg" xmlns:xlink="http://www.w3.org/1999/xlink" width="1366" zoomAndPan="magnify" viewBox="0 0 1024.5 249" height="332" preserveAspectRatio="xMidYMid meet" version="1.0"><defs><g/><clipPath id="2c6c2e388f"><path d="M 18.082031 12.054688 L 100.484375 12.054688 L 100.484375 48.871094 L 18.082031 48.871094 Z M 18.082031 12.054688 " clip-rule="nonzero"/></clipPath><clipPath id="9e9217f22d"><path d="M 36.488281 12.054688 L 81.996094 12.054688 C 86.878906 12.054688 91.558594 13.996094 95.011719 17.445312 C 98.464844 20.898438 100.402344 25.582031 100.402344 30.460938 C 100.402344 35.34375 98.464844 40.027344 95.011719 43.476562 C 91.558594 46.929688 86.878906 48.871094 81.996094 48.871094 L 36.488281 48.871094 C 31.605469 48.871094 26.925781 46.929688 23.472656 43.476562 C 20.019531 40.027344 18.082031 35.34375 18.082031 30.460938 C 18.082031 25.582031 20.019531 20.898438 23.472656 17.445312 C 26.925781 13.996094 31.605469 12.054688 36.488281 12.054688 Z M 36.488281 12.054688 " clip-rule="nonzero"/></clipPath><clipPath id="0c9ee8fb25"><path d="M 0.0820312 0.0546875 L 82.484375 0.0546875 L 82.484375 36.871094 L 0.0820312 36.871094 Z M 0.0820312 0.0546875 " clip-rule="nonzero"/></clipPath><clipPath id="298dec1dcc"><path d="M 18.488281 0.0546875 L 63.996094 0.0546875 C 68.878906 0.0546875 73.558594 1.996094 77.011719 5.445312 C 80.464844 8.898438 82.402344 13.582031 82.402344 18.460938 C 82.402344 23.34375 80.464844 28.027344 77.011719 31.476562 C 73.558594 34.929688 68.878906 36.871094 63.996094 36.871094 L 18.488281 36.871094 C 13.605469 36.871094 8.925781 34.929688 5.472656 31.476562 C 2.019531 28.027344 0.0820312 23.34375 0.0820312 18.460938 C 0.0820312 13.582031 2.019531 8.898438 5.472656 5.445312 C 8.925781 1.996094 13.605469 0.0546875 18.488281 0.0546875 Z M 18.488281 0.0546875 " clip-rule="nonzero"/></clipPath><clipPath id="e63ccc7ef0"><rect x="0" width="83" y="0" height="37"/></clipPath><clipPath id="be783b340b"><path d="M 38.769531 59.074219 L 167.90625 59.074219 L 167.90625 95.886719 L 38.769531 95.886719 Z M 38.769531 59.074219 " clip-rule="nonzero"/></clipPath><clipPath id="fdd88a77a2"><path d="M 57.175781 59.074219 L 149.398438 59.074219 C 154.28125 59.074219 158.964844 61.011719 162.414062 64.464844 C 165.867188 67.917969 167.808594 72.597656 167.808594 77.480469 C 167.808594 82.363281 165.867188 87.046875 162.414062 90.496094 C 158.964844 93.949219 154.28125 95.886719 149.398438 95.886719 L 57.175781 95.886719 C 52.296875 95.886719 47.613281 93.949219 44.160156 90.496094 C 40.710938 87.046875 38.769531 82.363281 38.769531 77.480469 C 38.769531 72.597656 40.710938 67.917969 44.160156 64.464844 C 47.613281 61.011719 52.296875 59.074219 57.175781 59.074219 Z M 57.175781 59.074219 " clip-rule="nonzero"/></clipPath><clipPath id="793acc3e22"><path d="M 0.769531 0.0742188 L 129.90625 0.0742188 L 129.90625 36.886719 L 0.769531 36.886719 Z M 0.769531 0.0742188 " clip-rule="nonzero"/></clipPath><clipPath id="3c37d051c2"><path d="M 19.175781 0.0742188 L 111.398438 0.0742188 C 116.28125 0.0742188 120.964844 2.011719 124.414062 5.464844 C 127.867188 8.917969 129.808594 13.597656 129.808594 18.480469 C 129.808594 23.363281 127.867188 28.046875 124.414062 31.496094 C 120.964844 34.949219 116.28125 36.886719 111.398438 36.886719 L 19.175781 36.886719 C 14.296875 36.886719 9.613281 34.949219 6.160156 31.496094 C 2.710938 28.046875 0.769531 23.363281 0.769531 18.480469 C 0.769531 13.597656 2.710938 8.917969 6.160156 5.464844 C 9.613281 2.011719 14.296875 0.0742188 19.175781 0.0742188 Z M 19.175781 0.0742188 " clip-rule="nonzero"/></clipPath><clipPath id="a70b61fd2e"><rect x="0" width="130" y="0" height="37"/></clipPath><clipPath id="53148b2d91"><path d="M 18.082031 106.09375 L 114.433594 106.09375 L 114.433594 142.90625 L 18.082031 142.90625 Z M 18.082031 106.09375 " clip-rule="nonzero"/></clipPath><clipPath id="a685fda5a5"><path d="M 36.488281 106.09375 L 96.011719 106.09375 C 100.894531 106.09375 105.574219 108.03125 109.027344 111.484375 C 112.480469 114.9375 114.417969 119.617188 114.417969 124.5 C 114.417969 129.382812 112.480469 134.0625 109.027344 137.515625 C 105.574219 140.96875 100.894531 142.90625 96.011719 142.90625 L 36.488281 142.90625 C 31.605469 142.90625 26.925781 140.96875 23.472656 137.515625 C 20.019531 134.0625 18.082031 129.382812 18.082031 124.5 C 18.082031 119.617188 20.019531 114.9375 23.472656 111.484375 C 26.925781 108.03125 31.605469 106.09375 36.488281 106.09375 Z M 36.488281 106.09375 " clip-rule="nonzero"/></clipPath><clipPath id="c583ce1b6e"><path d="M 0.0820312 0.09375 L 96.425781 0.09375 L 96.425781 36.90625 L 0.0820312 36.90625 Z M 0.0820312 0.09375 " clip-rule="nonzero"/></clipPath><clipPath id="f4d5de3c75"><path d="M 18.488281 0.09375 L 78.011719 0.09375 C 82.894531 0.09375 87.574219 2.03125 91.027344 5.484375 C 94.480469 8.9375 96.417969 13.617188 96.417969 18.5 C 96.417969 23.382812 94.480469 28.0625 91.027344 31.515625 C 87.574219 34.96875 82.894531 36.90625 78.011719 36.90625 L 18.488281 36.90625 C 13.605469 36.90625 8.925781 34.96875 5.472656 31.515625 C 2.019531 28.0625 0.0820312 23.382812 0.0820312 18.5 C 0.0820312 13.617188 2.019531 8.9375 5.472656 5.484375 C 8.925781 2.03125 13.605469 0.09375 18.488281 0.09375 Z M 18.488281 0.09375 " clip-rule="nonzero"/></clipPath><clipPath id="699af6447e"><rect x="0" width="97" y="0" height="37"/></clipPath><clipPath id="f806c2fd50"><path d="M 65.699219 153.113281 L 167.949219 153.113281 L 167.949219 189.925781 L 65.699219 189.925781 Z M 65.699219 153.113281 " clip-rule="nonzero"/></clipPath><clipPath id="7b549764ad"><path d="M 84.109375 153.113281 L 149.398438 153.113281 C 154.28125 153.113281 158.964844 155.050781 162.414062 158.503906 C 165.867188 161.953125 167.808594 166.636719 167.808594 171.519531 C 167.808594 176.402344 165.867188 181.082031 162.414062 184.535156 C 158.964844 187.988281 154.28125 189.925781 149.398438 189.925781 L 84.109375 189.925781 C 79.226562 189.925781 74.542969 187.988281 71.09375 184.535156 C 67.640625 181.082031 65.699219 176.402344 65.699219 171.519531 C 65.699219 166.636719 67.640625 161.953125 71.09375 158.503906 C 74.542969 155.050781 79.226562 153.113281 84.109375 153.113281 Z M 84.109375 153.113281 " clip-rule="nonzero"/></clipPath><clipPath id="5057556fc9"><path d="M 0.699219 0.113281 L 102.917969 0.113281 L 102.917969 36.925781 L 0.699219 36.925781 Z M 0.699219 0.113281 " clip-rule="nonzero"/></clipPath><clipPath id="4990a69058"><path d="M 19.109375 0.113281 L 84.398438 0.113281 C 89.28125 0.113281 93.964844 2.050781 97.414062 5.503906 C 100.867188 8.953125 102.808594 13.636719 102.808594 18.519531 C 102.808594 23.402344 100.867188 28.082031 97.414062 31.535156 C 93.964844 34.988281 89.28125 36.925781 84.398438 36.925781 L 19.109375 36.925781 C 14.226562 36.925781 9.542969 34.988281 6.09375 31.535156 C 2.640625 28.082031 0.699219 23.402344 0.699219 18.519531 C 0.699219 13.636719 2.640625 8.953125 6.09375 5.503906 C 9.542969 2.050781 14.226562 0.113281 19.109375 0.113281 Z M 19.109375 0.113281 " clip-rule="nonzero"/></clipPath><clipPath id="de257baf17"><rect x="0" width="103" y="0" height="37"/></clipPath><clipPath id="181dc5e4d3"><path d="M 18.082031 200.128906 L 120.328125 200.128906 L 120.328125 236.945312 L 18.082031 236.945312 Z M 18.082031 200.128906 " clip-rule="nonzero"/></clipPath><clipPath id="3802135095"><path d="M 36.488281 200.128906 L 101.78125 200.128906 C 106.664062 200.128906 111.34375 202.070312 114.796875 205.523438 C 118.25 208.972656 120.1875 213.65625 120.1875 218.539062 C 120.1875 223.417969 118.25 228.101562 114.796875 231.554688 C 111.34375 235.003906 106.664062 236.945312 101.78125 236.945312 L 36.488281 236.945312 C 31.605469 236.945312 26.925781 235.003906 23.472656 231.554688 C 20.019531 228.101562 18.082031 223.417969 18.082031 218.539062 C 18.082031 213.65625 20.019531 208.972656 23.472656 205.523438 C 26.925781 202.070312 31.605469 200.128906 36.488281 200.128906 Z M 36.488281 200.128906 " clip-rule="nonzero"/></clipPath><clipPath id="430eb88459"><path d="M 0.0820312 0.128906 L 102.328125 0.128906 L 102.328125 36.945312 L 0.0820312 36.945312 Z M 0.0820312 0.128906 " clip-rule="nonzero"/></clipPath><clipPath id="fddfb1efd4"><path d="M 18.488281 0.128906 L 83.78125 0.128906 C 88.664062 0.128906 93.34375 2.070312 96.796875 5.523438 C 100.25 8.972656 102.1875 13.65625 102.1875 18.539062 C 102.1875 23.417969 100.25 28.101562 96.796875 31.554688 C 93.34375 35.003906 88.664062 36.945312 83.78125 36.945312 L 18.488281 36.945312 C 13.605469 36.945312 8.925781 35.003906 5.472656 31.554688 C 2.019531 28.101562 0.0820312 23.417969 0.0820312 18.539062 C 0.0820312 13.65625 2.019531 8.972656 5.472656 5.523438 C 8.925781 2.070312 13.605469 0.128906 18.488281 0.128906 Z M 18.488281 0.128906 " clip-rule="nonzero"/></clipPath><clipPath id="541fddcb5a"><rect x="0" width="103" y="0" height="37"/></clipPath></defs><g clip-path="url(#2c6c2e388f)"><g clip-path="url(#9e9217f22d)"><g transform="matrix(1, 0, 0, 1, 18, 12)"><g clip-path="url(#e63ccc7ef0)"><g clip-path="url(#0c9ee8fb25)"><g clip-path="url(#298dec1dcc)"><path fill="#ffffff" d="M 0.0820312 0.0546875 L 82.339844 0.0546875 L 82.339844 36.871094 L 0.0820312 36.871094 Z M 0.0820312 0.0546875 " fill-opacity="1" fill-rule="nonzero"/></g></g></g></g></g></g><g clip-path="url(#be783b340b)"><g clip-path="url(#fdd88a77a2)"><g transform="matrix(1, 0, 0, 1, 38, 59)"><g clip-path="url(#a70b61fd2e)"><g clip-path="url(#793acc3e22)"><g clip-path="url(#3c37d051c2)"><path fill="#ffffff" d="M 0.769531 0.0742188 L 129.765625 0.0742188 L 129.765625 36.886719 L 0.769531 36.886719 Z M 0.769531 0.0742188 " fill-opacity="1" fill-rule="nonzero"/></g></g></g></g></g></g><g clip-path="url(#53148b2d91)"><g clip-path="url(#a685fda5a5)"><g transform="matrix(1, 0, 0, 1, 18, 106)"><g clip-path="url(#699af6447e)"><g clip-path="url(#c583ce1b6e)"><g clip-path="url(#f4d5de3c75)"><path fill="#ffffff" d="M 0.0820312 0.09375 L 96.433594 0.09375 L 96.433594 36.90625 L 0.0820312 36.90625 Z M 0.0820312 0.09375 " fill-opacity="1" fill-rule="nonzero"/></g></g></g></g></g></g><g clip-path="url(#f806c2fd50)"><g clip-path="url(#7b549764ad)"><g transform="matrix(1, 0, 0, 1, 65, 153)"><g clip-path="url(#de257baf17)"><g clip-path="url(#5057556fc9)"><g clip-path="url(#4990a69058)"><path fill="#ffffff" d="M 0.699219 0.113281 L 102.804688 0.113281 L 102.804688 36.925781 L 0.699219 36.925781 Z M 0.699219 0.113281 " fill-opacity="1" fill-rule="nonzero"/></g></g></g></g></g></g><g clip-path="url(#181dc5e4d3)"><g clip-path="url(#3802135095)"><g transform="matrix(1, 0, 0, 1, 18, 200)"><g clip-path="url(#541fddcb5a)"><g clip-path="url(#430eb88459)"><g clip-path="url(#fddfb1efd4)"><path fill="#ffffff" d="M 0.0820312 0.128906 L 102.183594 0.128906 L 102.183594 36.945312 L 0.0820312 36.945312 Z M 0.0820312 0.128906 " fill-opacity="1" fill-rule="nonzero"/></g></g></g></g></g></g><g fill="#ffffff" fill-opacity="1"><g transform="translate(233.618816, 188.682974)"><g><path d="M 35.890625 0 L 11.515625 0 L 11.515625 -129.1875 L 35.890625 -129.1875 Z M 35.890625 0 "/></g></g></g><g fill="#ffffff" fill-opacity="1"><g transform="translate(281.5341, 188.682974)"><g><path d="M 48.59375 1.859375 C 40.351562 1.859375 33.070312 -0.226562 26.75 -4.40625 C 20.425781 -8.582031 15.515625 -14.394531 12.015625 -21.84375 C 8.515625 -29.289062 6.765625 -37.867188 6.765625 -47.578125 C 6.765625 -57.285156 8.515625 -65.863281 12.015625 -73.3125 C 15.515625 -80.757812 20.425781 -86.570312 26.75 -90.75 C 33.070312 -94.925781 40.351562 -97.015625 48.59375 -97.015625 C 54.238281 -97.015625 59.175781 -96.023438 63.40625 -94.046875 C 67.632812 -92.078125 71.671875 -88.382812 75.515625 -82.96875 L 75.515625 -129.1875 L 98.375 -129.1875 L 98.375 0 L 75.515625 0 L 75.515625 -12.015625 C 71.671875 -6.710938 67.632812 -3.070312 63.40625 -1.09375 C 59.175781 0.875 54.238281 1.859375 48.59375 1.859375 Z M 53.84375 -17.78125 C 61.175781 -17.78125 67.097656 -20.546875 71.609375 -26.078125 C 76.128906 -31.609375 78.390625 -38.773438 78.390625 -47.578125 C 78.390625 -56.378906 76.128906 -63.546875 71.609375 -69.078125 C 67.097656 -74.609375 61.175781 -77.375 53.84375 -77.375 C 46.613281 -77.375 40.796875 -74.578125 36.390625 -68.984375 C 31.992188 -63.398438 29.796875 -56.265625 29.796875 -47.578125 C 29.796875 -38.992188 31.992188 -31.878906 36.390625 -26.234375 C 40.796875 -20.597656 46.613281 -17.78125 53.84375 -17.78125 Z M 53.84375 -17.78125 "/></g></g></g><g fill="#ffffff" fill-opacity="1"><g transform="translate(390.570977, 188.682974)"><g><path d="M 43.515625 1.859375 C 28.835938 1.859375 18.960938 -3.390625 13.890625 -13.890625 C 12.421875 -17.046875 11.375 -20.515625 10.75 -24.296875 C 10.125 -28.078125 9.8125 -33.410156 9.8125 -40.296875 L 9.8125 -94.984375 L 32.671875 -94.984375 L 32.671875 -40.125 C 32.671875 -35.269531 33.035156 -31.347656 33.765625 -28.359375 C 34.503906 -25.367188 35.664062 -22.96875 37.25 -21.15625 C 39.957031 -18.34375 43.960938 -16.9375 49.265625 -16.9375 C 55.816406 -16.9375 60.671875 -18.851562 63.828125 -22.6875 C 65.742188 -24.945312 67.125 -27.96875 67.96875 -31.75 C 68.820312 -35.53125 69.25 -40.523438 69.25 -46.734375 L 69.25 -94.984375 L 92.109375 -94.984375 L 92.109375 0 L 69.25 0 L 69.25 -12.015625 C 65.75 -7.160156 61.992188 -3.632812 57.984375 -1.4375 C 53.984375 0.757812 49.160156 1.859375 43.515625 1.859375 Z M 43.515625 1.859375 "/></g></g></g><g fill="#ffffff" fill-opacity="1"><g transform="translate(493.681962, 188.682974)"><g><path d="M 62.8125 2.375 C 56.601562 2.375 50.3125 1.609375 43.9375 0.078125 C 37.5625 -1.441406 31.660156 -3.894531 26.234375 -7.28125 C 20.816406 -10.664062 16.273438 -15.207031 12.609375 -20.90625 C 8.941406 -26.601562 6.710938 -33.628906 5.921875 -41.984375 L 31.15625 -41.984375 C 32.625 -35.890625 34.992188 -31.117188 38.265625 -27.671875 C 41.535156 -24.234375 45.34375 -21.835938 49.6875 -20.484375 C 54.039062 -19.128906 58.472656 -18.453125 62.984375 -18.453125 C 69.640625 -18.453125 75.222656 -19.863281 79.734375 -22.6875 C 84.253906 -25.507812 86.515625 -30.023438 86.515625 -36.234375 C 86.515625 -40.742188 85.046875 -44.238281 82.109375 -46.71875 C 79.179688 -49.207031 75.375 -51.15625 70.6875 -52.5625 C 66 -53.976562 60.890625 -55.25 55.359375 -56.375 C 50.054688 -57.625 44.75 -58.976562 39.4375 -60.4375 C 34.132812 -61.90625 29.253906 -63.9375 24.796875 -66.53125 C 20.335938 -69.132812 16.78125 -72.609375 14.125 -76.953125 C 11.476562 -81.296875 10.15625 -86.851562 10.15625 -93.625 C 10.15625 -101.976562 12.160156 -108.945312 16.171875 -114.53125 C 20.179688 -120.125 25.628906 -124.359375 32.515625 -127.234375 C 39.398438 -130.117188 47.1875 -131.5625 55.875 -131.5625 C 64.226562 -131.5625 72.070312 -130.09375 79.40625 -127.15625 C 86.738281 -124.21875 92.945312 -119.753906 98.03125 -113.765625 C 103.113281 -107.785156 106.332031 -100.113281 107.6875 -90.75 L 82.796875 -90.75 C 81.210938 -97.632812 77.910156 -102.6875 72.890625 -105.90625 C 67.867188 -109.125 62.023438 -110.734375 55.359375 -110.734375 C 49.265625 -110.734375 44.242188 -109.460938 40.296875 -106.921875 C 36.347656 -104.378906 34.375 -100.625 34.375 -95.65625 C 34.375 -91.707031 35.753906 -88.601562 38.515625 -86.34375 C 41.285156 -84.09375 44.925781 -82.316406 49.4375 -81.015625 C 53.957031 -79.710938 58.8125 -78.441406 64 -77.203125 C 69.414062 -76.078125 74.859375 -74.695312 80.328125 -73.0625 C 85.804688 -71.425781 90.890625 -69.222656 95.578125 -66.453125 C 100.265625 -63.691406 104.015625 -59.992188 106.828125 -55.359375 C 109.648438 -50.734375 111.0625 -44.753906 111.0625 -37.421875 C 111.0625 -25.222656 106.828125 -15.539062 98.359375 -8.375 C 89.898438 -1.207031 78.050781 2.375 62.8125 2.375 Z M 62.8125 2.375 "/></g></g></g><g fill="#ffffff" fill-opacity="1"><g transform="translate(612.030996, 188.682974)"><g><path d="M 54.6875 1.859375 C 45.207031 1.859375 36.828125 -0.226562 29.546875 -4.40625 C 22.265625 -8.582031 16.59375 -14.421875 12.53125 -21.921875 C 8.46875 -29.429688 6.4375 -38.148438 6.4375 -48.078125 C 6.4375 -57.671875 8.46875 -66.132812 12.53125 -73.46875 C 16.59375 -80.8125 22.234375 -86.570312 29.453125 -90.75 C 36.679688 -94.925781 45.09375 -97.015625 54.6875 -97.015625 C 66.082031 -97.015625 75.757812 -94.078125 83.71875 -88.203125 C 91.675781 -82.335938 96.84375 -74.492188 99.21875 -64.671875 L 74.328125 -64.671875 C 71.390625 -73.816406 64.84375 -78.390625 54.6875 -78.390625 C 47.351562 -78.390625 41.367188 -75.625 36.734375 -70.09375 C 32.109375 -64.5625 29.796875 -57.222656 29.796875 -48.078125 C 29.796875 -38.597656 32.109375 -31.007812 36.734375 -25.3125 C 41.367188 -19.613281 47.351562 -16.765625 54.6875 -16.765625 C 60.21875 -16.765625 64.675781 -18.117188 68.0625 -20.828125 C 71.445312 -23.535156 73.707031 -27.257812 74.84375 -32 L 99.5625 -32 C 98.09375 -24.882812 95.269531 -18.785156 91.09375 -13.703125 C 86.914062 -8.628906 81.691406 -4.765625 75.421875 -2.109375 C 69.160156 0.535156 62.25 1.859375 54.6875 1.859375 Z M 54.6875 1.859375 "/></g></g></g><g fill="#ffffff" fill-opacity="1"><g transform="translate(717.681639, 188.682974)"><g><path d="M 55.03125 1.859375 C 45.539062 1.859375 37.128906 -0.226562 29.796875 -4.40625 C 22.460938 -8.582031 16.734375 -14.421875 12.609375 -21.921875 C 8.492188 -29.429688 6.4375 -38.148438 6.4375 -48.078125 C 6.4375 -57.671875 8.492188 -66.132812 12.609375 -73.46875 C 16.734375 -80.8125 22.4375 -86.570312 29.71875 -90.75 C 37 -94.925781 45.4375 -97.015625 55.03125 -97.015625 C 64.625 -97.015625 73.085938 -94.925781 80.421875 -90.75 C 87.753906 -86.570312 93.476562 -80.8125 97.59375 -73.46875 C 101.71875 -66.132812 103.78125 -57.671875 103.78125 -48.078125 C 103.78125 -38.265625 101.75 -29.601562 97.6875 -22.09375 C 93.625 -14.59375 87.925781 -8.722656 80.59375 -4.484375 C 73.257812 -0.253906 64.738281 1.859375 55.03125 1.859375 Z M 55.03125 -17.78125 C 62.476562 -17.78125 68.515625 -20.597656 73.140625 -26.234375 C 77.765625 -31.878906 80.078125 -39.160156 80.078125 -48.078125 C 80.078125 -53.722656 79.03125 -58.742188 76.9375 -63.140625 C 74.851562 -67.546875 71.945312 -71.019531 68.21875 -73.5625 C 64.5 -76.101562 60.101562 -77.375 55.03125 -77.375 C 50.175781 -77.375 45.828125 -76.128906 41.984375 -73.640625 C 38.148438 -71.160156 35.160156 -67.71875 33.015625 -63.3125 C 30.867188 -58.914062 29.796875 -53.835938 29.796875 -48.078125 C 29.796875 -39.054688 32.164062 -31.75 36.90625 -26.15625 C 41.644531 -20.570312 47.6875 -17.78125 55.03125 -17.78125 Z M 55.03125 -17.78125 "/></g></g></g><g fill="#ffffff" fill-opacity="1"><g transform="translate(828.580956, 188.682974)"><g><path d="M 33.1875 0 L 10.328125 0 L 10.328125 -94.984375 L 33.1875 -94.984375 L 33.1875 -83.640625 C 36.800781 -88.609375 40.835938 -92.078125 45.296875 -94.046875 C 49.753906 -96.023438 54.75 -97.015625 60.28125 -97.015625 L 62.984375 -97.015625 L 62.984375 -75 L 57.734375 -75 C 53.898438 -75 50.597656 -74.488281 47.828125 -73.46875 C 45.066406 -72.457031 42.722656 -71.050781 40.796875 -69.25 C 38.316406 -66.769531 36.425781 -63.523438 35.125 -59.515625 C 33.832031 -55.503906 33.1875 -50.335938 33.1875 -44.015625 Z M 33.1875 0 "/></g></g></g><g fill="#ffffff" fill-opacity="1"><g transform="translate(893.935289, 188.682974)"><g><path d="M 54.859375 1.859375 C 45.148438 1.859375 36.65625 -0.253906 29.375 -4.484375 C 22.09375 -8.722656 16.445312 -14.507812 12.4375 -21.84375 C 8.4375 -29.175781 6.4375 -37.53125 6.4375 -46.90625 C 6.4375 -53.113281 7.394531 -59.207031 9.3125 -65.1875 C 11.226562 -71.164062 14.160156 -76.550781 18.109375 -81.34375 C 22.066406 -86.144531 27.035156 -89.957031 33.015625 -92.78125 C 38.992188 -95.601562 46.050781 -97.015625 54.1875 -97.015625 C 60.28125 -97.015625 66.175781 -96.054688 71.875 -94.140625 C 77.570312 -92.222656 82.675781 -89.257812 87.1875 -85.25 C 91.707031 -81.238281 95.289062 -76.128906 97.9375 -69.921875 C 100.59375 -63.710938 101.921875 -56.320312 101.921875 -47.75 L 101.921875 -42.84375 L 30.140625 -42.84375 C 30.359375 -40.800781 30.804688 -38.789062 31.484375 -36.8125 C 32.171875 -34.84375 32.90625 -33.125 33.6875 -31.65625 C 35.945312 -27.257812 38.96875 -23.847656 42.75 -21.421875 C 46.53125 -18.992188 50.847656 -17.78125 55.703125 -17.78125 C 61.117188 -17.78125 65.660156 -19.191406 69.328125 -22.015625 C 73.003906 -24.835938 75.570312 -28.164062 77.03125 -32 L 100.40625 -32 C 98.59375 -25.90625 95.710938 -20.289062 91.765625 -15.15625 C 87.816406 -10.019531 82.796875 -5.898438 76.703125 -2.796875 C 70.609375 0.304688 63.328125 1.859375 54.859375 1.859375 Z M 31.15625 -59.9375 L 78.5625 -59.9375 C 78.445312 -61.175781 78.132812 -62.585938 77.625 -64.171875 C 77.125 -65.753906 76.25 -67.273438 75 -68.734375 C 72.851562 -72.117188 70.003906 -74.660156 66.453125 -76.359375 C 62.898438 -78.054688 59.035156 -78.90625 54.859375 -78.90625 C 50.679688 -78.90625 46.867188 -78.054688 43.421875 -76.359375 C 39.984375 -74.660156 37.132812 -72.117188 34.875 -68.734375 C 33.632812 -67.273438 32.757812 -65.753906 32.25 -64.171875 C 31.738281 -62.585938 31.375 -61.175781 31.15625 -59.9375 Z M 31.15625 -59.9375 "/></g></g></g></svg>